<svg xmlns="http://www.w3.org/2000/svg" width="200" height="200" class="icon" p-id="2097" t="1565337950129" version="1.1" viewBox="0 0 1024 1024">
  <path d="M512 384a128.853333 128.853333 0 0 0-128 128c0 70.058667 57.941333 128 128 128 70.016 0 128-57.941333 128-128 0-70.016-57.984-128-128-128z" p-id="2098"/>
  <path d="M512 213.333333c-325.674667 0-423.552 282.325333-424.448 285.184a42.410667 42.410667 0 0 0 0 27.008C88.448 528.341333 186.325333 810.666667 512 810.666667s423.552-282.325333 424.448-285.184a42.410667 42.410667 0 0 0 0-27.008C935.552 495.658667 837.674667 213.333333 512 213.333333z m0 512c-228.309333 0-316.757333-164.096-338.176-213.333333C195.328 462.592 283.818667 298.666667 512 298.666667c228.309333 0 316.757333 164.096 338.176 213.333333-21.504 49.408-109.994667 213.333333-338.176 213.333333z" p-id="2099"/>
</svg>
